# xmcd CD database file
#
# Track frame offsets:
#	150
#	15950
#	37096
#	58657
#	82632
#	104896
#	121494
#	142557
#	158033
#	178589
#	207658
#	237211
#
# Disc length: 3440 seconds
#
# Revision: 4
# Processed by: cddbd v1.5.1PL0 Copyright (c) Steve Scherf et al.
# Submitted via: CDex 1.51
#
DISCID=970d6e0c
DTITLE=オムニバス - We Love Dance Classics vol.1
DYEAR=2005
DGENRE=Dance
TTITLE0=Best Of My Love - LISA
TTITLE1=In The Night - 加藤ミリヤ
TTITLE2=Ring My Bell - DOUBLE
TTITLE3=She's A Bad Mama Jama - SOUL'd OUT
TTITLE4=Play That Funky Music - Sowelu feat. urb
TTITLE5=Push It - Heartsdales
TTITLE6=Stayin' Alive - 10,000 Promises.
TTITLE7=ダンシング・シスター - TiA
TTITLE8=Le Freak - GTS feat. Norma Jean and Luci M.(Formerly of CHIC)
TTITLE9=Just Be Good To Me - Melodie Sexton
TTITLE10=In The Mood - 久保田利伸
TTITLE11=宇宙のファンタジー - Skoop On Somebody
EXTD=YEAR: 2005
EXTT0=
EXTT1=
EXTT2=
EXTT3=
EXTT4=
EXTT5=
EXTT6=
EXTT7=
EXTT8=
EXTT9=
EXTT10=
EXTT11=
PLAYORDER=
